# xmcd CD database file
#
# Track frame offsets:
#	150
#	21409
#	39643
#	53865
#	71123
#	95825
#	115501
#	139375
#	158268
#	176713
#	187994
#	207184
#	232069
#	247030
#	261708
#	275393
#
# Disc length: 4060 seconds
#
# Revision: 1
# Processed by: cddbd v1.5.2PL0 Copyright (c) Steve Scherf et al.
# Submitted via: CDex 1.70beta2
#
DISCID=f20fda10
DTITLE=Various Artist - Stony Plain - 40 Years of Stony Plain -Disc 01 of 03, Singers, Songwriters and much more
DYEAR=2016
DGENRE=Blues
TTITLE0=Colin Linden - No More Cheap Wine
TTITLE1=Crawl (The) - Spirit of the West
TTITLE2=Corb Lund - I Wanna Be in the Cavalry
TTITLE3=Doug Salm - Louis Riel
TTITLE4=Harry Manx and Kevin Breit - Do Not Stand at My Grave and Weep
TTITLE5=Emmylou Harris - Where Will I Be
TTITLE6=James Burton, Albert Lee, Amos Garret and Davis Wilcox - That's All Right (Mama)
TTITLE7=New Guitar Summit - Flying Home
TTITLE8=Rodney Crowell - Funky and the Farm-boy
TTITLE9=Valdy and Gary Fjellgaard - VLT
TTITLE10=Jr. Gone Wild - Poet's Highway
TTITLE11=Tim Hus - Wild Rose Waltz
TTITLE12=Ian Tyson - Cottonwood Canyon
TTITLE13=Jennifer Warnes - Blue Mountains of Mexico
TTITLE14=Steve Earl - Rivers of Babylon
TTITLE15=Eric Bibb, Taj Mahal, The Blind Boys of Alabama and Rythie Foster - Needed Time
EXTD=YEAR: 2016
EXTT0=
EXTT1=
EXTT2=
EXTT3=
EXTT4=
EXTT5=
EXTT6=
EXTT7=
EXTT8=
EXTT9=
EXTT10=
EXTT11=
EXTT12=
EXTT13=
EXTT14=
EXTT15=
PLAYORDER=
